<mxfile type="github" version="12.4.9" host="www.draw.io" modified="2020-01-07T20:10:01.831Z" agent="Mozilla/5.0 (Windows NT 10.0; Win64; x64) AppleWebKit/537.36 (KHTML, like Gecko) Chrome/58.0.3029.110 Safari/537.36 Edge/16.16299" etag="FnC3ztIMjwDcom8J0d8J">
  <diagram id="1LtGkpLCPf3KZeVMqJkY" name="Page-1">
    <mxGraphModel grid="1" dx="1117" dy="660" gridSize="10" guides="1" tooltips="1" connect="1" arrows="1" fold="1" page="1" pageScale="1" pageWidth="1100" pageHeight="850" math="0" shadow="0">
      <root>
        <mxCell id="0"/>
        <mxCell id="1" value="Text" parent="0" style=""/>
        <mxCell id="eJA-KfrndEvYRp83sPR4-4" value="&lt;h1&gt;Data Flow Diagram Wireframe Template&lt;/h1&gt;&lt;p&gt;This document is a wireframe (template) design that other registry-specific data flow diagrams follow.&lt;/p&gt;&lt;p&gt;The wireframe consists of nodes and edges. Nodes represent data sources, targets, and destinations. Edges represent the relationships between the nodes.&lt;/p&gt;" parent="1" style="text;html=1;strokeColor=none;fillColor=none;spacing=5;spacingTop=-20;whiteSpace=wrap;overflow=hidden;rounded=0;" vertex="1">
          <mxGeometry as="geometry" x="40" y="40" width="160" height="320"/>
        </mxCell>
        <mxCell id="eJA-KfrndEvYRp83sPR4-5" value="&lt;h1&gt;Key&lt;/h1&gt;&lt;p&gt;&lt;/p&gt;" parent="1" style="text;html=1;strokeColor=none;fillColor=none;spacing=5;spacingTop=-20;whiteSpace=wrap;overflow=hidden;rounded=0;" vertex="1">
          <mxGeometry as="geometry" x="40" y="380" width="160" height="40"/>
        </mxCell>
        <mxCell id="eJA-KfrndEvYRp83sPR4-17" value="" parent="1" style="ellipse;whiteSpace=wrap;html=1;aspect=fixed;" vertex="1">
          <mxGeometry as="geometry" x="70" y="430" width="40" height="40"/>
        </mxCell>
        <mxCell id="eJA-KfrndEvYRp83sPR4-21" value="" parent="1" style="strokeWidth=1;html=1;shape=mxgraph.flowchart.delay;whiteSpace=wrap;rotation=-90;" vertex="1">
          <mxGeometry as="geometry" x="70" y="520" width="40" height="40"/>
        </mxCell>
        <mxCell id="eJA-KfrndEvYRp83sPR4-22" value="" parent="1" style="strokeWidth=1;html=1;shape=mxgraph.flowchart.database;whiteSpace=wrap;" vertex="1">
          <mxGeometry as="geometry" x="70" y="610" width="40" height="40"/>
        </mxCell>
        <mxCell id="eJA-KfrndEvYRp83sPR4-24" value="&lt;div&gt;Local Level&lt;/div&gt;&lt;div&gt;(Source)&lt;/div&gt;" parent="1" style="text;html=1;align=center;verticalAlign=middle;resizable=0;points=[];autosize=1;fontSize=14;" vertex="1">
          <mxGeometry as="geometry" x="45" y="470" width="90" height="40"/>
        </mxCell>
        <mxCell id="eJA-KfrndEvYRp83sPR4-27" value="&lt;div&gt;State Level&lt;/div&gt;&lt;div&gt;(Target)&lt;/div&gt;" parent="1" style="text;html=1;align=center;verticalAlign=middle;resizable=0;points=[];autosize=1;fontSize=14;" vertex="1">
          <mxGeometry as="geometry" x="45" y="560" width="90" height="40"/>
        </mxCell>
        <mxCell id="eJA-KfrndEvYRp83sPR4-28" value="&lt;div&gt;National Level&lt;/div&gt;&lt;div&gt;(Destination)&lt;/div&gt;" parent="1" style="text;html=1;align=center;verticalAlign=middle;resizable=0;points=[];autosize=1;fontSize=14;" vertex="1">
          <mxGeometry as="geometry" x="40" y="660" width="100" height="40"/>
        </mxCell>
        <mxCell id="Dlc9sbz_LcFVTC8bd_fI-4" value="" parent="1" style="ellipse;whiteSpace=wrap;html=1;aspect=fixed;" vertex="1">
          <mxGeometry as="geometry" x="500" y="130" width="40" height="40"/>
        </mxCell>
        <mxCell id="Dlc9sbz_LcFVTC8bd_fI-5" value="" parent="1" style="strokeWidth=1;html=1;shape=mxgraph.flowchart.delay;whiteSpace=wrap;rotation=-90;" vertex="1">
          <mxGeometry as="geometry" x="500" y="220" width="40" height="40"/>
        </mxCell>
        <mxCell id="Dlc9sbz_LcFVTC8bd_fI-6" value="" parent="1" style="strokeWidth=1;html=1;shape=mxgraph.flowchart.database;whiteSpace=wrap;" vertex="1">
          <mxGeometry as="geometry" x="500" y="310" width="40" height="40"/>
        </mxCell>
        <mxCell id="Dlc9sbz_LcFVTC8bd_fI-2" value="Sample Paper" parent="0" style="locked=1;"/>
        <mxCell id="Dlc9sbz_LcFVTC8bd_fI-3" value="" parent="Dlc9sbz_LcFVTC8bd_fI-2" style="whiteSpace=wrap;html=1;aspect=fixed;fillColor=none;strokeColor=#CCCCCC;glass=0;" vertex="1">
          <mxGeometry as="geometry" x="200" y="40" width="880.01" height="680"/>
        </mxCell>
        <mxCell id="eJA-KfrndEvYRp83sPR4-3" value="Edges" parent="0" style=""/>
        <mxCell id="eJA-KfrndEvYRp83sPR4-2" value="Nodes" parent="0" style=""/>
      </root>
    </mxGraphModel>
  </diagram>
</mxfile>
